<svg width="96" height="33" viewBox="0 0 96 33" fill="none" xmlns="http://www.w3.org/2000/svg">
<g clip-path="url(#clip0_4605_20789)">
<path d="M96.0007 23.0355C96.0007 31.2155 90.0237 32.5 88.27 32.5H72.9125C72.2225 32.5 71.6621 31.9196 71.6621 31.2048V2.11239C71.6621 1.3922 72.2225 0.811749 72.9125 0.811749H84.3995C84.3995 0.811749 92.3896 0.295793 92.3896 8.76607C92.3896 8.76607 92.6127 12.2219 90.5684 14.3986C90.4232 14.5544 90.2675 14.6996 90.1015 14.8393C89.9147 14.9952 89.7124 15.1403 89.4945 15.2746C89.4945 15.2746 89.7954 15.3552 90.2675 15.5434C90.2831 15.5487 90.3038 15.5595 90.3194 15.5649C92.0731 16.2743 96.0007 18.3865 96.0007 23.0355Z" fill="url(#paint0_linear_4605_20789)"/>
<path d="M96.0007 23.0355C96.0007 31.2155 90.0237 32.5 88.27 32.5H72.9125C72.2225 32.5 71.6621 31.9196 71.6621 31.2048V2.11239C71.6621 1.3922 72.2225 0.811749 72.9125 0.811749H84.3995C84.3995 0.811749 92.3896 0.295793 92.3896 8.76607C92.3896 8.76607 92.6127 12.2219 90.5684 14.3986C90.4232 14.5544 90.2675 14.6996 90.1015 14.8393C89.9147 14.9952 89.7124 15.1403 89.4945 15.2746C89.4945 15.2746 89.7954 15.3552 90.2675 15.5434C90.2831 15.5487 90.3038 15.5595 90.3194 15.5649C92.0731 16.2743 96.0007 18.3865 96.0007 23.0355Z" fill="url(#paint1_linear_4605_20789)"/>
<path d="M52.3921 14.8554C52.5945 16.3012 52.885 17.3922 52.1586 18.7197C51.2922 20.2944 49.2272 20.8534 47.7537 19.7731C46.0312 18.5155 46.1453 15.7207 45.9689 13.7805C45.8911 12.9098 45.9586 13.8342 45.9171 13.3237C45.8859 12.9582 45.86 12.5873 45.834 12.2165C45.7406 10.9696 45.6421 9.72809 45.5487 8.4812C45.393 6.42275 45.2322 4.3643 45.0765 2.30585C44.8949 -0.0911902 41.2579 -0.112688 41.4447 2.30585C41.6782 5.34784 41.9065 8.38446 42.1399 11.4264C42.3267 13.9095 42.2645 16.1883 42.9856 18.7036C44.1271 22.6915 48.0235 25.196 51.9822 23.6428C56.1485 22.0089 56.439 17.7093 55.8994 13.8557C55.557 11.4694 52.0601 12.4799 52.3921 14.8554Z" fill="#1D91CC"/>
<path d="M42.5647 16.6989C42.7515 19.4883 39.6177 21.6757 37.4801 19.456C35.9236 17.8437 36.3491 15.1403 35.9652 13.0979C35.519 10.7224 32.0168 11.7274 32.463 14.0976C32.4838 14.2212 32.463 14.146 32.4993 14.5491C32.5357 14.979 32.5564 15.4144 32.5979 15.8443C32.6965 16.8171 32.8158 17.8007 33.0908 18.7412C33.7393 20.9663 35.1039 22.8635 37.2778 23.6482C41.745 25.2551 46.5286 21.6865 46.1966 16.6935C46.0357 14.3018 42.4039 14.2803 42.5647 16.6989Z" fill="#1D91CC"/>
<path d="M32.5882 16.6665C32.7543 19.5634 29.1951 21.7078 27.1664 19.3269C25.7552 17.6715 26.1547 15.1133 25.7759 13.1032C25.3297 10.7276 21.8276 11.7327 22.2738 14.1029C22.2894 14.1781 22.3464 15.1724 22.3931 15.6937C22.4865 16.7203 22.611 17.7629 22.9016 18.7518C23.5294 20.9016 24.8265 22.7612 26.8966 23.5835C31.3638 25.3571 36.5054 21.7616 36.2149 16.6665C36.0852 14.2587 32.4533 14.2426 32.5882 16.6665Z" fill="#1D91CC"/>
<path d="M22.4346 16.0862C21.8172 19.4291 16.909 20.1117 14.0762 20.2675C11.5339 20.4073 8.06809 20.7298 5.64513 19.6387C5.17299 19.4291 5.15742 19.0422 5.09516 18.6874C5.12629 18.8702 5.03809 17.6555 5.05885 17.3384C5.11073 16.5107 5.23525 15.4842 5.75408 14.8124C6.50121 13.8504 8.09403 13.4311 9.10057 14.1943C10.1331 14.9736 10.2835 17.0106 10.3665 18.193C10.5326 20.4879 10.5066 23.2128 9.31848 25.2444C7.73603 27.9478 4.52963 28.367 1.74349 28.4261C-0.591264 28.4745 -0.596453 32.2366 1.74349 32.1883C8.13035 32.0593 13.1734 29.0925 13.9205 22.1325C14.5016 16.715 12.8777 7.88461 5.63475 10.4536C1.95103 11.7597 0.721388 16.5591 1.72274 20.1439C3.08727 25.0348 10.8335 24.2555 14.4861 24.0029C18.7405 23.7073 24.9665 22.2991 25.9316 17.0912C26.3778 14.721 22.8756 13.7052 22.4346 16.0862Z" fill="#1D91CC"/>
<path d="M61.1765 12.3455C61.4671 14.3072 62.9925 18.924 60.7148 20.1332C58.8574 21.1222 56.9584 19.542 56.424 17.8114C55.9934 16.4194 56.0971 14.9576 55.8274 13.5387C55.376 11.1631 51.8738 12.1682 52.3252 14.5383C52.3304 14.5545 52.3564 14.9361 52.3927 15.3445C52.4394 15.9519 52.5016 16.5645 52.5898 17.1665C52.7818 18.451 53.119 19.7302 53.7728 20.8534C55.35 23.5622 58.8003 24.7285 61.6798 23.7611C66.8526 22.0251 65.2857 15.4359 64.6787 11.3459C64.3259 8.96495 60.8289 9.97536 61.1765 12.3455Z" fill="#1D91CC"/>
<path d="M60.9991 32.183C63.3339 32.183 63.3391 28.4208 60.9991 28.4208C58.6644 28.4208 58.6592 32.183 60.9991 32.183Z" fill="#1D91CC"/>
<path d="M46.8565 32.1347C49.5493 32.2368 52.242 32.2583 54.9348 32.1938C57.2695 32.14 57.2747 28.3779 54.9348 28.4316C52.242 28.4961 49.5493 28.4746 46.8565 28.3725C44.5166 28.2811 44.5218 32.0433 46.8565 32.1347Z" fill="#1D91CC"/>
<path d="M24.7491 32.1345C27.665 32.2366 30.5808 32.2581 33.4967 32.1936C35.8314 32.1452 35.8366 28.3831 33.4967 28.4314C30.5808 28.4959 27.665 28.4744 24.7491 28.3723C22.4092 28.2863 22.4144 32.0485 24.7491 32.1345Z" fill="#1D91CC"/>
<path d="M13.1475 4.60614C17.1685 4.70825 21.1947 4.72975 25.2156 4.66526C27.5504 4.62763 27.5556 0.865458 25.2156 0.903079C21.1895 0.967574 17.1685 0.946076 13.1475 0.843959C10.8076 0.779465 10.8076 4.54164 13.1475 4.60614Z" fill="#1D91CC"/>
<path d="M90.2665 15.5435L87.0861 15.8982L88.9123 21.5361L87.4025 21.606L84.0301 16.6721C84.0301 16.6721 83.5528 15.909 82.7019 15.8068C81.9807 15.7262 80.0558 15.7853 79.4696 15.7961C79.345 15.8068 79.2205 15.7746 79.1064 15.7101C78.8677 15.5704 78.4941 15.2963 78.4941 14.8932C78.4941 14.4148 78.9818 14.1192 79.2257 14.001C79.3035 13.958 79.3917 13.9419 79.4799 13.9419L82.5826 13.8989C82.9976 13.8774 83.3816 13.657 83.6202 13.3077L87.4492 7.69128L88.7204 7.50317L86.9719 13.7C86.9719 13.7 88.8864 14.0924 90.5674 14.3987C90.4222 14.5546 90.2665 14.6997 90.1005 14.8394C89.9137 14.9953 89.7114 15.1404 89.4934 15.2748C89.4934 15.2748 89.7944 15.3554 90.2665 15.5435Z" fill="white"/>
</g>
<defs>
<linearGradient id="paint0_linear_4605_20789" x1="71.664" y1="16.6536" x2="96.0026" y2="16.6536" gradientUnits="userSpaceOnUse">
<stop stop-color="#0086FF"/>
<stop offset="0.7728" stop-color="#5091FD"/>
<stop offset="1" stop-color="#6894FD"/>
</linearGradient>
<linearGradient id="paint1_linear_4605_20789" x1="71.664" y1="16.6536" x2="96.0026" y2="16.6536" gradientUnits="userSpaceOnUse">
<stop stop-color="#1D91CC"/>
<stop offset="0.0001" stop-color="#1D91CC"/>
<stop offset="0.71875" stop-color="#50B2E4"/>
<stop offset="1" stop-color="#53A2FF"/>
</linearGradient>
<clipPath id="clip0_4605_20789">
<rect width="96" height="32" fill="white" transform="translate(0 0.5)"/>
</clipPath>
</defs>
</svg>
