<svg width="882" height="502" viewBox="0 0 882 502" fill="none" xmlns="http://www.w3.org/2000/svg">
<path d="M668.559 349.502L656.711 318.562L636.926 324.562L596.516 219.01L551.465 232.674L551.6 233.033L537.069 288.869L516.395 368.303L528.455 392.008L570.995 379.104L586.481 374.404L603.72 369.173L617.795 405.945L662.848 392.281L648.772 355.509L668.559 349.502ZM586.641 339.819L576.421 342.92L556.85 348.858L570.208 289.816L571.464 284.917L591.872 338.231L586.641 339.819Z" fill="#0077DB"/>
<path opacity="0.25" d="M648.626 355.029L648.113 355.185L648.305 355.686L661.981 391.415L634.557 380.972L588.766 234.101L588.304 232.618L587.814 234.092L570.99 284.76L570.985 284.773L570.982 284.787L563.408 312.686L537.629 288.704L552.085 233.158L552.125 233.004L552.122 232.996L596.216 219.624L636.458 324.742L636.624 325.177L637.07 325.042L656.409 319.176L667.9 349.179L648.626 355.029Z" fill="#0C0C0C" stroke="#0C0C0C"/>
<path opacity="0.25" d="M585.973 374.034L571.553 378.41L586.127 340.416C586.125 340.511 586.122 340.616 586.12 340.731C586.107 341.329 586.088 342.198 586.067 343.284C586.025 345.455 585.973 348.494 585.931 351.961C585.849 358.766 585.809 367.229 585.973 374.034Z" fill="#0C0C0C" stroke="#0C0C0C"/>
<path d="M586.64 339.819C586.64 339.819 582.769 335.492 576.012 335.992C569.255 336.492 565.485 338.748 565.258 345.014C565.031 351.28 566.71 382.857 565.168 395.389C563.625 407.921 573.222 409.173 573.772 399.9C574.324 390.628 570.246 361.555 573.269 356.794C576.294 352.032 574.453 362.057 577.625 365.315C580.799 368.573 584.176 362.809 580.799 355.04C577.419 347.27 586.64 339.819 586.64 339.819Z" fill="url(#paint0_linear_4636_31623)"/>
<path d="M174.074 293.035C172.917 293.035 172.06 292.979 171.69 292.841C171.259 292.679 169.942 292.191 158.445 273.923L160.512 272.893C164.806 279.714 171.317 289.643 172.695 290.913C173.947 291.093 180.822 290.666 186.914 290.121L187.153 292.221C183.317 292.562 177.431 293.035 174.074 293.035Z" fill="#F26647"/>
<path d="M215.752 301.892V302.504C215.752 302.504 215.124 314.099 205.373 313.599C205.348 313.599 205.325 313.594 205.3 313.594C199.27 313.246 191.805 310.741 186.801 308.88C183.655 307.709 181.475 306.791 181.233 306.828C180.599 306.918 188.619 336.618 188.512 338.31C188.5 338.537 188.441 338.78 188.352 339.028C187.784 340.637 185.8 342.566 184.609 342.725C184.484 342.741 184.23 342.535 183.869 342.133C180.243 338.121 165.89 314.813 165.498 307.202C165.078 298.839 169.828 293.802 176.268 292.842C181.019 292.136 194.911 293.839 201.87 294.783C204.342 295.12 205.934 295.358 205.934 295.358L215.752 301.892Z" fill="#0A2533"/>
<path opacity="0.25" d="M181.23 306.83L181.16 306.335C180.866 306.377 180.761 306.619 180.737 306.683C180.706 306.768 180.698 306.848 180.696 306.894C180.69 306.996 180.698 307.115 180.711 307.233C180.737 307.478 180.794 307.819 180.873 308.234C181.034 309.068 181.296 310.25 181.627 311.663C182.289 314.491 183.23 318.268 184.186 322.091C184.288 322.502 184.391 322.912 184.494 323.323C185.348 326.737 186.192 330.112 186.841 332.809C187.204 334.319 187.505 335.614 187.711 336.582C187.815 337.066 187.893 337.464 187.944 337.765C187.97 337.915 187.988 338.037 187.998 338.13C188.004 338.176 188.007 338.213 188.008 338.241C188.01 338.267 188.01 338.279 188.01 338.281C188.01 338.281 188.01 338.281 188.01 338.281L188.01 338.281L188.009 338.287C188.001 338.449 187.957 338.64 187.878 338.862L187.877 338.864C187.627 339.573 187.043 340.395 186.36 341.066C186.022 341.397 185.673 341.68 185.346 341.886C185.072 342.059 184.836 342.163 184.652 342.21C184.647 342.206 184.642 342.202 184.637 342.198C184.602 342.17 184.56 342.133 184.512 342.087C185.072 341.204 185.365 340.039 185.482 338.718C185.615 337.2 185.52 335.413 185.274 333.479C184.781 329.609 183.674 325.071 182.506 320.756C182.007 318.914 181.498 317.118 181.02 315.429C180.372 313.139 179.779 311.045 179.34 309.296C178.959 307.776 178.704 306.557 178.631 305.724C178.594 305.304 178.608 305.034 178.647 304.886C178.893 304.903 179.245 304.998 179.714 305.196C180.241 305.418 180.865 305.747 181.573 306.159C181.859 306.326 182.156 306.505 182.464 306.694C182.257 306.617 182.076 306.551 181.922 306.498C181.775 306.447 181.645 306.405 181.539 306.377C181.486 306.363 181.432 306.35 181.379 306.341C181.34 306.335 181.252 306.321 181.155 306.336L181.23 306.83ZM181.23 306.83C181.383 306.807 182.313 307.166 183.773 307.73C184.03 307.829 184.303 307.935 184.591 308.046L188.509 338.312C188.559 337.511 186.79 330.44 184.979 323.201C183.251 316.295 181.485 309.236 181.226 307.33C181.221 307.329 181.218 307.328 181.216 307.328C181.206 307.326 181.211 307.328 181.226 307.329C181.183 307.011 181.182 306.837 181.23 306.83Z" fill="#0C0C0C" stroke="#0C0C0C"/>
<path opacity="0.25" d="M205.747 295.838L215.249 302.162V302.49L215.248 302.505C215.246 302.524 215.244 302.554 215.241 302.594C215.234 302.674 215.223 302.793 215.206 302.945C215.171 303.25 215.11 303.688 215.008 304.213C214.802 305.265 214.429 306.655 213.766 308.022C213.103 309.39 212.158 310.716 210.815 311.67C209.729 312.442 208.364 312.985 206.637 313.095C207.914 311.528 208.118 309.298 208 306.894C207.912 305.092 206.947 302.723 205.805 300.484C204.868 298.648 203.783 296.847 202.879 295.429C203.632 295.534 204.267 295.624 204.755 295.694C205.108 295.745 205.384 295.785 205.571 295.812L205.747 295.838Z" fill="#0C0C0C" stroke="#0C0C0C"/>
<path d="M194.994 263.818C194.669 264.272 194.456 264.652 194.456 264.941C194.456 264.941 194.444 264.924 194.421 264.888C194.307 264.709 193.899 264.082 193.373 263.353C192.484 262.131 191.257 260.611 190.516 260.426C189.326 260.136 186.157 263.7 181.874 263.985C181.589 264.008 181.306 264.012 181.015 264.003C176.3 263.812 171.299 257.859 175.315 250.845C176.72 253.413 179.605 253.476 179.605 253.476C179.605 253.476 177.845 253.161 177.78 251.219C182.915 252.031 185.589 248.587 190.026 249.842C194.456 251.091 194.178 253.475 194.178 253.475C194.178 253.475 197.554 252.283 198.609 256.043C199.455 259.051 196.298 262.015 194.994 263.818Z" fill="#0A2533"/>
<path d="M194.425 264.89C194.124 265.839 193.548 266.874 192.772 267.711C191.832 268.735 190.587 269.483 189.182 269.452C186.185 269.389 183.205 265.808 181.879 263.988C186.162 263.703 189.331 260.139 190.521 260.428C191.262 260.613 192.487 262.132 193.378 263.356C193.902 264.084 194.312 264.711 194.425 264.89Z" fill="url(#paint1_linear_4636_31623)"/>
<path d="M198.752 265.251C198.752 265.251 196.501 269.829 195.655 268.826C195.198 268.284 193.883 267.926 192.77 267.708C193.547 266.87 194.121 265.836 194.423 264.887C194.447 264.923 194.458 264.94 194.458 264.94C194.458 264.65 194.671 264.27 194.996 263.817C196.631 264.915 198.752 265.251 198.752 265.251Z" fill="url(#paint2_linear_4636_31623)"/>
<path d="M214.593 303.914C211.003 303.444 201.294 294.047 201.294 290.002C201.294 289.432 201.223 288.799 201.105 288.109C200.359 283.901 197.628 277.731 196.49 273.37C195.17 268.296 197.07 266.398 197.07 266.398C201.49 259.633 211.492 273.043 217.196 283.795L217.202 283.801C219.121 287.423 220.39 290.788 220.508 293.041C220.916 300.654 218.183 304.383 214.593 303.914Z" fill="#5462AD"/>
<path opacity="0.25" d="M218.894 290.21C218.985 289.87 219.038 289.492 219.05 289.076C219.615 290.627 219.952 291.991 220.008 293.065L220.008 293.066C220.21 296.822 219.631 299.545 218.62 301.252C217.626 302.931 216.227 303.621 214.659 303.416C214.291 303.368 213.805 303.198 213.218 302.9C212.638 302.605 211.986 302.198 211.292 301.703C209.904 300.712 208.376 299.386 206.954 297.946C205.531 296.505 204.228 294.962 203.284 293.538C202.324 292.09 201.795 290.852 201.795 290.001C201.795 289.403 201.722 288.753 201.605 288.062L201.583 286.355L204.872 271.009C204.904 271.051 204.937 271.094 204.97 271.139C205.425 271.748 206.043 272.658 206.685 273.852C207.971 276.24 209.354 279.761 209.735 284.284C209.936 286.688 210.832 288.638 211.995 290.019C213.148 291.388 214.594 292.23 215.91 292.342C216.575 292.399 217.222 292.269 217.762 291.903C218.304 291.535 218.693 290.96 218.894 290.21Z" fill="#0C0C0C" stroke="#0C0C0C"/>
<path d="M207.059 283.616C206.965 283.688 206.799 283.747 206.58 283.801C204.915 284.21 200.064 284.148 198.043 283.795C197.742 283.742 197.498 283.679 197.345 283.616C196.013 283.052 197.345 281.671 196.925 279.228C196.504 276.782 195.448 269.641 199.53 267.447C203.801 265.153 206.916 273.837 207.059 278.163C207.202 282.488 207.978 282.925 207.059 283.616Z" fill="#5462AD"/>
<path d="M206.581 283.799C206.581 283.799 206.387 294.361 204.123 299.345C204.123 299.351 204.123 299.351 204.123 299.355C203.418 300.906 202.512 301.913 201.345 301.892C196.434 301.797 185.404 291.414 184.398 291.034C183.397 290.659 178.379 291.319 178.539 290.659C178.699 290.001 180.653 288.544 182.761 287.843C184.877 287.138 184.504 287.559 198.069 293.107C197.885 292.042 197.962 287.433 198.022 284.822C198.028 284.426 198.041 284.079 198.046 283.794C200.067 284.146 204.917 284.209 206.581 283.799Z" fill="url(#paint3_linear_4636_31623)"/>
<path d="M192.557 345.451C192.901 347.334 178.695 360.206 179.434 356.825C180.169 353.441 184.606 342.725 184.606 342.725C185.797 342.565 187.781 340.637 188.35 339.028C189.512 340.821 192.267 343.89 192.557 345.451Z" fill="#5462AD"/>
<path opacity="0.25" d="M205.374 305.918C205.374 305.918 182.57 302.107 178.065 303.95C173.561 305.792 186.307 337.872 186.307 337.872" stroke="white" stroke-width="0.4597" stroke-miterlimit="10"/>
<path opacity="0.25" d="M198.533 284.371C199.587 284.502 201.041 284.576 202.447 284.583C203.779 284.59 205.121 284.537 206.067 284.404C206.057 284.687 206.042 285.059 206.019 285.502C205.966 286.564 205.872 288.031 205.707 289.652C205.548 291.212 205.326 292.896 205.018 294.493C205.019 294.362 205.019 294.23 205.018 294.099C205.011 293.029 204.952 291.941 204.818 290.96C204.684 289.987 204.471 289.083 204.137 288.403C203.666 287.441 202.603 286.613 201.51 285.955C200.517 285.358 199.424 284.856 198.53 284.488C198.531 284.448 198.532 284.409 198.533 284.371Z" fill="#0C0C0C" stroke="#0C0C0C"/>
<path d="M572.661 227.907C572.2 229.489 571.429 231.525 570.232 234.25C568.526 238.158 565.949 243.484 562.152 250.909C562.058 254.68 560.707 278.732 560.34 284.269C560.292 284.944 560.263 285.345 560.251 285.397C560.198 285.639 559.22 286.104 558.155 286.341C557.147 286.573 556.07 286.604 555.606 286.056C554.652 284.928 548.213 262.182 547.9 256.826C547.581 251.469 547.266 252.691 554.652 231.361C552.857 232.11 541.223 231.83 541.223 231.83C541.223 231.83 543.356 257.954 543.367 258.143C543.367 258.17 543.349 258.233 543.308 258.322C543.173 258.681 542.745 259.478 542.284 259.879C542.076 260.062 541.862 260.168 541.666 260.115C541.554 260.09 541.281 259.867 540.885 259.493C538.652 257.383 532.527 250.286 529.209 243.667C525.304 235.867 524.35 230.414 528.048 224.967C531.745 219.515 550.463 219.097 550.463 219.097C551.649 219.392 554.373 219.682 557.068 220.252C557.862 220.416 558.656 220.611 559.403 220.833C563.503 222.045 571.316 223.585 572.999 222.721C573.372 223.884 573.455 225.244 572.661 227.907Z" fill="#6561AB"/>
<path d="M588.181 209.744C587.44 210.118 578.839 209.833 573.027 207.861C573.056 208.772 573.187 210.207 573.335 211.837C573.567 214.406 573.833 217.459 573.768 219.684C573.732 221.272 573.525 222.442 573.027 222.712C573.02 222.717 573.015 222.722 573.002 222.722C572.109 223.181 569.49 222.959 566.611 222.474C564.75 222.157 562.784 221.731 561.108 221.303C560.497 221.145 559.924 220.987 559.408 220.834C556.115 219.853 552.004 219.478 550.468 219.098C550.083 219.003 549.864 218.914 549.851 218.808C549.805 218.291 551.279 217.121 551.972 215.897C552.054 215.744 552.166 215.517 552.291 215.227C552.855 213.946 553.737 211.52 554.164 209.975C554.418 209.063 554.513 208.462 554.289 208.566C553.602 208.893 549.537 215.659 549.062 215.659C548.897 215.659 548.079 215.243 547.108 214.657C545.473 213.67 543.417 212.221 543.37 211.53C543.358 211.435 543.388 211.356 543.465 211.293C544.418 210.491 551.699 199.59 554.34 197.265C555.579 196.167 557.042 195.509 558.233 195.119C559.565 194.676 560.573 194.575 560.573 194.575C562.142 194.527 563.723 194.713 565.265 195.061C570.501 196.226 575.306 199.169 578.043 200.624C581.579 202.501 584.008 201.985 584.902 202.454C585.805 202.93 588.915 209.364 588.181 209.744Z" fill="#F26647"/>
<path d="M573.764 219.686C568.895 219.738 558.071 219.353 552.289 215.229C552.852 213.948 553.735 211.522 554.161 209.977C554.161 209.977 565.588 213.061 573.331 211.839C573.563 214.407 573.83 217.46 573.764 219.686Z" fill="#F69181"/>
<path opacity="0.25" d="M560.602 195.077L560.58 195.079C560.554 195.082 560.513 195.088 560.459 195.095C560.351 195.111 560.191 195.136 559.991 195.174C559.678 195.235 559.267 195.327 558.798 195.466C558.901 195.901 559.097 196.425 559.466 196.892C559.949 197.501 560.761 198.057 562.182 198.155L560.602 195.077ZM560.602 195.077C561.966 195.037 563.345 195.178 564.703 195.455C564.591 196.161 564.386 196.819 564.048 197.307C563.664 197.862 563.099 198.219 562.182 198.155L560.602 195.077Z" fill="#0C0C0C" stroke="#0C0C0C"/>
<path d="M563.944 191.134C563.944 191.134 563.417 189.209 562.357 188.218C561.498 189.462 558.187 190.1 555.633 190.264C554.424 190.343 553.382 190.317 552.855 190.195C551.06 183.989 556.657 181.267 559.774 181.077C562.884 180.887 565.686 182.949 564.84 186.098C567.635 188.55 563.944 191.134 563.944 191.134Z" fill="#321212"/>
<path d="M563.947 191.134C563.787 191.546 563.538 192.269 563.112 192.943H563.105C562.407 194.066 561.234 195.063 559.202 194.33C559.131 194.304 559.06 194.277 558.995 194.246C557.284 193.555 556.394 192.21 555.945 191.151C555.803 190.818 555.702 190.513 555.637 190.265C558.189 190.101 561.502 189.463 562.36 188.219C562.408 188.267 562.456 188.314 562.502 188.361C563.467 189.384 563.947 191.134 563.947 191.134Z" fill="url(#paint4_linear_4636_31623)"/>
<path d="M563.679 195.928C563.365 197.668 560.143 197.574 559.792 196.446C559.608 195.861 559.401 195.296 559.241 194.884C559.099 194.5 558.992 194.251 558.992 194.251V194.247C559.058 194.278 559.129 194.304 559.2 194.33C561.232 195.063 562.404 194.068 563.103 192.944H563.109C562.89 193.334 563.476 193.824 563.672 194.747C563.744 195.079 563.762 195.471 563.679 195.928Z" fill="url(#paint5_linear_4636_31623)"/>
<path d="M546.949 264.816C546.635 266.978 534.07 275.437 534.284 273.934C534.49 272.43 540.889 259.495 540.889 259.495C541.286 259.869 541.559 260.091 541.67 260.116C542.304 260.281 543.109 258.846 543.31 258.324C544.999 260.212 547.233 262.885 546.949 264.816Z" fill="#262166"/>
<path d="M555.603 303.666C552.647 298.022 555.603 286.056 555.603 286.056C556.551 287.185 560.141 285.867 560.247 285.398C560.26 285.345 560.288 284.944 560.336 284.269C560.336 284.269 560.81 290.002 561.373 294.859C561.936 299.715 558.56 309.303 555.603 303.666Z" fill="#262166"/>
<path opacity="0.25" d="M541.224 231.831C540.726 231.871 540.726 231.871 540.726 231.872L540.726 231.873L540.726 231.876L540.728 231.89L540.732 231.946L540.75 232.165L540.818 232.994L541.059 235.956L541.794 244.957C542.061 248.234 542.329 251.518 542.53 253.993C542.631 255.231 542.715 256.267 542.775 257L542.844 257.858L542.863 258.092C542.863 258.093 542.863 258.094 542.863 258.096C542.861 258.101 542.858 258.107 542.855 258.114L542.848 258.13L542.841 258.147C542.791 258.279 542.681 258.512 542.531 258.763C541.47 254.352 540.032 248.374 539.191 243.043C538.737 240.168 538.46 237.504 538.505 235.388C538.527 234.33 538.629 233.428 538.82 232.713C539.013 231.993 539.282 231.513 539.601 231.238L541.224 231.831ZM541.224 231.831L541.236 231.331L540.681 231.317L540.726 231.871L541.224 231.831ZM541.224 231.831L541.237 231.331L541.237 231.331L541.238 231.331L541.245 231.331L541.269 231.332L541.366 231.334C541.452 231.336 541.577 231.338 541.737 231.341C542.058 231.347 542.519 231.355 543.077 231.363C544.193 231.377 545.7 231.389 547.262 231.377C548.825 231.365 550.438 231.33 551.769 231.252C552.434 231.212 553.023 231.163 553.496 231.101C553.824 231.058 554.076 231.012 554.253 230.966M541.224 231.831L554.253 230.966M554.253 230.966C554.281 230.877 554.315 230.767 554.353 230.64C554.457 230.292 554.595 229.82 554.727 229.323C554.859 228.825 554.984 228.31 555.064 227.873C555.105 227.654 555.133 227.462 555.146 227.307C555.149 227.274 555.151 227.245 555.152 227.218C555.11 227.211 555.06 227.203 555.001 227.195C554.69 227.156 554.227 227.141 553.637 227.16C552.464 227.196 550.858 227.358 549.115 227.664C547.373 227.969 545.509 228.415 543.816 229.013C542.117 229.614 540.625 230.356 539.601 231.238L554.253 230.966ZM555.305 227.259C555.305 227.259 555.305 227.259 555.304 227.259L555.305 227.259ZM555.147 227.022L555.147 227.022L555.147 227.022Z" fill="#0C0C0C" stroke="#0C0C0C"/>
<path d="M546.286 219.016C546.114 219.333 546.025 219.597 546.08 219.771C546.333 220.646 544.983 231.61 545.475 232.738C545.966 233.867 546.251 237.437 545.966 239.694C545.681 241.952 540.405 243.328 540.405 241.387C540.405 239.442 541.039 234.87 541.251 233.114C541.464 231.363 539.493 218.674 540.02 216.918C540.364 215.773 541.684 213.834 542.561 212.626C543.028 211.978 543.372 211.534 543.372 211.534C543.451 212.635 548.633 215.663 549.065 215.663C549.064 215.662 546.979 217.741 546.286 219.016Z" fill="url(#paint6_linear_4636_31623)"/>
<path opacity="0.25" d="M562.046 222.048C563.634 222.428 565.388 222.787 567.03 223.05C568.378 223.266 569.662 223.418 570.723 223.461C571.253 223.483 571.737 223.477 572.151 223.436C572.326 223.419 572.496 223.394 572.657 223.36C572.856 224.258 572.845 225.404 572.296 227.373C570.162 227.154 567.848 226.293 566.225 224.843L566.224 224.842C565.115 223.855 563.641 222.911 562.046 222.048Z" fill="#0C0C0C" stroke="#0C0C0C"/>
<path opacity="0.25" d="M561.632 251.456C561.447 256.588 560.191 278.922 559.839 284.236C559.815 284.573 559.796 284.84 559.781 285.029C559.776 285.098 559.771 285.155 559.767 285.201C559.765 285.203 559.763 285.204 559.761 285.205C559.68 285.263 559.549 285.337 559.372 285.418C559.173 285.509 558.933 285.602 558.67 285.685C558.718 283.78 558.741 281.421 558.766 278.864C558.795 275.965 558.826 272.811 558.897 269.773C558.968 266.734 559.08 263.791 559.27 261.283C559.46 258.764 559.727 256.722 560.096 255.464L560.096 255.464C560.425 254.342 560.964 252.965 561.632 251.456Z" fill="#0C0C0C" stroke="#0C0C0C"/>
<path opacity="0.25" d="M550.466 219.099C551.011 219.234 551.879 219.368 552.92 219.529C554.814 219.821 557.28 220.202 559.406 220.835C559.552 220.879 559.703 220.923 559.859 220.967C559.727 220.848 559.599 220.726 559.476 220.601C559.476 220.601 559.476 220.601 559.476 220.601C559.359 220.483 559.246 220.361 559.136 220.237M550.466 219.099L559.136 220.237M550.466 219.099C550.081 219.004 549.862 218.915 549.849 218.809M550.466 219.099L549.849 218.809M559.136 220.237C557.44 218.322 556.541 215.738 556.068 213.267C555.454 210.059 555.534 206.927 555.597 205.399L555.597 205.399C555.632 204.573 555.606 203.871 555.542 203.327C555.515 203.101 555.483 202.911 555.448 202.755C555.406 202.896 555.363 203.064 555.32 203.263C554.943 205.17 553.664 207.175 552.22 209.072C551.491 210.029 550.706 210.977 549.951 211.886L549.874 211.979C549.143 212.858 548.445 213.699 547.841 214.492L547.84 214.493C547.837 214.497 547.834 214.501 547.831 214.505C548.125 214.675 548.392 214.821 548.613 214.934C548.753 215.005 548.87 215.062 548.962 215.102C548.977 215.085 548.994 215.066 549.012 215.045C549.156 214.876 549.347 214.624 549.574 214.307C550.027 213.675 550.596 212.827 551.178 211.958L551.193 211.936C551.768 211.079 552.354 210.205 552.84 209.523C553.084 209.18 553.309 208.878 553.498 208.648C553.592 208.534 553.683 208.431 553.767 208.347C553.839 208.275 553.946 208.175 554.072 208.116L554.287 208.567M559.136 220.237C557.566 219.801 555.859 219.491 554.357 219.248C553.864 219.169 553.398 219.097 552.965 219.03C551.939 218.871 551.108 218.743 550.586 218.614L550.586 218.614C550.547 218.605 550.512 218.595 550.479 218.586C550.603 218.412 550.784 218.203 551.007 217.949C551.038 217.914 551.07 217.878 551.103 217.841C551.526 217.362 552.054 216.764 552.405 216.144L552.406 216.143C552.775 215.484 553.539 213.526 554.117 211.809C554.408 210.944 554.661 210.113 554.798 209.512C554.865 209.221 554.914 208.943 554.912 208.733C554.912 208.653 554.907 208.46 554.79 208.294C554.715 208.187 554.591 208.089 554.421 208.062C554.268 208.038 554.143 208.081 554.069 208.117L554.287 208.567M554.287 208.567C554.387 208.518 554.424 208.616 554.409 208.822C554.409 208.823 554.409 208.824 554.409 208.825C554.405 208.89 554.395 208.966 554.381 209.052M554.287 208.567C554.215 208.601 554.106 208.705 553.969 208.865C553.929 208.806 553.916 208.754 553.912 208.731M549.849 218.809C549.824 218.534 550.231 218.073 550.721 217.517C551.151 217.03 551.646 216.47 551.97 215.898C552.508 214.939 554.048 210.775 554.358 209.18M549.849 218.809L554.358 209.18M554.381 209.052L547.536 214.913C548.311 215.361 548.92 215.661 549.06 215.661C549.298 215.661 550.44 213.957 551.606 212.218C552.476 210.921 553.359 209.603 553.889 208.96C553.906 208.858 553.913 208.785 553.912 208.74C553.912 208.737 553.912 208.733 553.912 208.731M554.381 209.052C554.439 209.046 554.481 209.028 554.501 209.019C554.502 209.018 554.503 209.018 554.504 209.018L554.501 209.019L554.501 209.019C554.502 209.018 554.503 209.018 554.504 209.017C554.519 209.01 554.527 209.005 554.527 209.005C554.527 209.005 554.51 209.018 554.473 209.055C554.441 209.087 554.403 209.128 554.358 209.18M554.381 209.052L554.358 209.18M553.912 208.731C553.912 208.721 553.911 208.717 553.911 208.717C553.911 208.718 553.911 208.722 553.912 208.731ZM549.131 215.168C549.131 215.168 549.13 215.168 549.126 215.167C549.129 215.168 549.131 215.168 549.131 215.168ZM555.268 202.243C555.268 202.242 555.27 202.244 555.274 202.249C555.27 202.245 555.268 202.243 555.268 202.243Z" fill="#0C0C0C" stroke="#0C0C0C"/>
<path opacity="0.25" d="M572.794 222.264L572.768 222.278C572.632 222.348 572.379 222.413 571.983 222.448C571.598 222.481 571.122 222.482 570.572 222.453C569.718 222.409 568.711 222.295 567.634 222.133C568.612 220.979 569.239 219.534 569.639 218.013C570.127 216.155 570.285 214.144 570.306 212.321C570.325 210.667 570.232 209.149 570.162 208.028C570.155 207.913 570.148 207.802 570.142 207.696C570.124 207.396 570.109 207.138 570.101 206.923C570.55 207.199 571.067 207.473 571.516 207.699C571.871 207.877 572.195 208.032 572.431 208.142C572.467 208.159 572.501 208.175 572.533 208.19C572.575 209.043 572.681 210.224 572.799 211.53L572.802 211.574C572.935 213.045 573.083 214.688 573.178 216.253C573.273 217.837 573.313 219.321 573.23 220.456C573.189 221.025 573.118 221.483 573.018 221.813C572.924 222.125 572.831 222.234 572.794 222.264ZM572.689 222.339C572.685 222.342 572.688 222.339 572.695 222.333L572.689 222.339Z" fill="#0C0C0C" stroke="#0C0C0C"/>
<path opacity="0.25" d="M543.309 212.439C543.474 212.629 543.677 212.825 543.9 213.019C544.428 213.479 545.117 213.975 545.806 214.427C546.496 214.882 547.198 215.302 547.758 215.609C547.913 215.694 548.058 215.771 548.191 215.839C548.008 216.033 547.789 216.268 547.558 216.526C547.246 216.875 546.9 217.276 546.587 217.679C546.488 217.38 546.341 217.065 546.173 216.753C545.899 216.245 545.542 215.693 545.161 215.151C544.502 214.213 543.752 213.279 543.189 212.602C543.231 212.545 543.271 212.49 543.309 212.439Z" fill="#0C0C0C" stroke="#0C0C0C"/>
<g opacity="0.25">
<mask id="path-35-inside-1_4636_31623" fill="white">
<path d="M562.502 188.361C561.235 190.856 557.509 191.145 555.945 191.151C555.803 190.818 555.702 190.513 555.637 190.265C558.189 190.101 561.502 189.463 562.36 188.219C562.408 188.267 562.456 188.314 562.502 188.361Z"/>
</mask>
<path d="M562.502 188.361C561.235 190.856 557.509 191.145 555.945 191.151C555.803 190.818 555.702 190.513 555.637 190.265C558.189 190.101 561.502 189.463 562.36 188.219C562.408 188.267 562.456 188.314 562.502 188.361Z" fill="#0C0C0C"/>
<path d="M562.502 188.361L563.394 188.814L563.72 188.171L563.214 187.659L562.502 188.361ZM555.945 191.151L555.025 191.543L555.285 192.153L555.948 192.151L555.945 191.151ZM555.637 190.265L555.573 189.267L554.358 189.345L554.67 190.521L555.637 190.265ZM562.36 188.219L563.071 187.515L562.222 186.657L561.537 187.651L562.36 188.219ZM561.61 187.908C561.157 188.802 560.219 189.381 559.048 189.731C557.894 190.077 556.679 190.148 555.941 190.151L555.948 192.151C556.775 192.147 558.206 192.071 559.622 191.647C561.022 191.228 562.581 190.415 563.394 188.814L561.61 187.908ZM556.865 190.759C556.742 190.471 556.657 190.211 556.603 190.009L554.67 190.521C554.748 190.815 554.864 191.165 555.025 191.543L556.865 190.759ZM555.701 191.263C557.023 191.178 558.557 190.97 559.892 190.613C560.559 190.435 561.204 190.212 561.757 189.933C562.294 189.663 562.832 189.296 563.184 188.786L561.537 187.651C561.459 187.764 561.261 187.943 560.857 188.147C560.467 188.344 559.963 188.524 559.376 188.681C558.201 188.995 556.803 189.188 555.573 189.267L555.701 191.263ZM561.65 188.922C561.725 188.999 561.728 189 561.79 189.063L563.214 187.659C563.184 187.628 563.091 187.535 563.071 187.515L561.65 188.922Z" fill="#0C0C0C" mask="url(#path-35-inside-1_4636_31623)"/>
</g>
<path opacity="0.25" d="M562.684 194.616C562.441 194.665 562.21 194.7 561.99 194.723C562.332 194.543 562.626 194.309 562.879 194.049C562.951 194.194 563.021 194.34 563.08 194.499C562.965 194.546 562.835 194.585 562.684 194.616Z" fill="#0C0C0C" stroke="#0C0C0C"/>
<path d="M580.523 0.181641V234.25" stroke="#0A2533" stroke-width="0.9195" stroke-miterlimit="10"/>
<path d="M591.601 206.39C591.59 206.453 591.573 206.517 591.56 206.575C590.862 209.407 588.314 209.708 587.834 209.523C587.354 209.338 586.086 208.041 584.978 203.47C584.954 203.379 584.937 203.29 584.912 203.196C584.912 203.196 582.52 197.732 581.395 195.106C578.617 193.64 578.09 194.236 577.698 192.543C577.313 190.85 578.546 188.661 579.251 188.345C579.955 188.034 583.119 190.665 583.545 191.636C583.965 192.605 592.235 203.384 591.601 206.39Z" fill="url(#paint7_linear_4636_31623)"/>
<path opacity="0.25" d="M587.08 207.898C586.864 207.512 586.628 207.016 586.386 206.386C586.791 206.832 587.236 207.229 587.713 207.501L587.714 207.502C588.591 208 589.558 208.12 590.409 207.887C590.099 208.286 589.737 208.556 589.388 208.737C589.048 208.913 588.717 209.006 588.45 209.045C588.317 209.064 588.205 209.07 588.122 209.067C588.047 209.064 588.014 209.056 588.012 209.056C587.983 209.043 587.877 208.983 587.71 208.803C587.539 208.619 587.323 208.331 587.08 207.898Z" fill="#0C0C0C" stroke="#0C0C0C"/>
<path d="M498.29 354.622L491.501 323.757C486.478 300.929 476.792 284.276 462.444 273.79C448.089 263.312 430.36 259.911 409.253 263.592C388.145 267.273 373.176 276.332 364.355 290.765C355.528 305.204 353.633 323.877 358.674 346.786L365.486 377.768C370.492 400.517 380.166 417.134 394.52 427.612C400.58 432.036 407.25 435.2 414.531 437.095C424.489 439.695 435.591 439.921 447.834 437.79C454.179 436.688 459.974 435.09 465.204 433.001C477.311 428.171 486.446 420.719 492.607 410.637C501.435 396.199 503.326 377.525 498.29 354.622ZM455.91 396.051C453.588 402.38 448.677 406.198 441.176 407.505C433.41 408.86 427.1 406.919 422.232 401.678C418.914 398.107 416.077 392.808 413.724 385.779C413.724 385.773 413.724 385.767 413.724 385.767C413.719 385.757 413.719 385.746 413.712 385.731C412.622 382.472 411.639 378.838 410.762 374.836L401.232 331.505C398.998 320.124 398.992 311.338 401.207 305.146C403.423 298.957 408.328 295.196 415.916 293.878C421.704 292.865 426.697 293.735 430.891 296.478H430.898C432.325 297.416 433.663 298.566 434.908 299.938C439.807 305.332 443.598 314.129 446.275 326.315L455.499 368.245C458.096 380.452 458.233 389.717 455.91 396.051Z" fill="#FBA219"/>
<path opacity="0.25" d="M458.696 401.837L458.914 402.136C459.11 402.404 459.345 402.919 459.604 403.688C459.858 404.443 460.121 405.398 460.389 406.513C460.925 408.743 461.473 411.579 462.003 414.661C463.036 420.67 463.995 427.582 464.66 432.681C459.56 434.685 453.92 436.226 447.751 437.298C435.806 439.377 424.974 439.198 415.25 436.763C415.561 436.101 415.848 435.418 416.103 434.721C419.255 426.149 418.85 414.195 417.64 404.279C417.076 399.657 416.334 395.456 415.683 392.214C417.509 396.272 419.569 399.544 421.869 402.019C426.865 407.398 433.352 409.378 441.265 407.998L441.179 407.505L441.265 407.998C448.913 406.663 453.989 402.743 456.382 396.223L455.961 396.068L456.382 396.223C458.755 389.754 458.592 380.373 455.993 368.14L455.992 368.136L446.769 326.207C444.084 313.988 440.268 305.09 435.283 299.6L435.283 299.6C434.739 299.001 434.177 298.443 433.598 297.925C436.178 299.242 438.704 301.713 441.141 305.047C444.435 309.552 447.501 315.541 450.269 322.095C455.803 335.2 460.105 350.474 462.638 360.426C465.17 370.387 466.523 377.602 466.106 383.858C465.692 390.085 463.521 395.398 458.918 401.541L458.696 401.837Z" fill="#0C0C0C" stroke="#0C0C0C"/>
<path d="M417.031 393.88C417.031 393.88 418.003 396.14 423.105 397.393C428.209 398.646 432.995 391.619 436.374 393.88C439.752 396.14 445.159 405.511 449.916 404.084C454.673 402.657 456.081 425.213 453.829 427.719C451.577 430.225 449.957 409.968 444.011 410.574C438.063 411.177 442.568 426.465 439.189 429.223C435.81 431.98 437.219 422.456 433.559 420.701C429.899 418.947 437.501 497.391 431.869 498.644C426.238 499.898 422.578 495.135 424.831 478.344C427.083 461.554 424.266 403.659 420.888 400.652C417.512 397.644 417.723 397.08 417.031 393.88Z" fill="#6561AB"/>
<path d="M415.633 0.181641V273.839" stroke="#0A2533" stroke-width="0.9195" stroke-miterlimit="10"/>
<path d="M488.713 168.015C488.713 168.015 484.227 157.066 484.596 156.219C484.966 155.374 489.893 153.776 490.255 154.245C490.615 154.716 493.729 163.221 493.201 163.831C492.672 164.443 488.713 168.015 488.713 168.015Z" fill="#262166"/>
<path d="M414.074 153.656C414.074 153.656 416.812 154.666 418.03 157.299C419.246 159.93 418.772 150.438 418.772 150.438L417.453 149.358L414.074 153.656Z" fill="url(#paint8_linear_4636_31623)"/>
<path d="M412.65 153.655C412.65 153.655 416.082 155.934 416.663 156.075C417.243 156.216 418.364 150.248 417.857 149.309C417.348 148.368 415.489 147.429 414.282 148.04C413.073 148.652 412.089 153.286 412.65 153.655Z" fill="url(#paint9_linear_4636_31623)"/>
<path d="M421.781 154.338C421.781 154.338 419.048 148.7 417.854 147.713C416.66 146.727 414.444 147.995 414.284 148.511C414.124 149.028 416.936 149.404 417.854 150.25C418.772 151.097 416.29 157.346 418.666 159.555C421.041 161.763 421.781 154.338 421.781 154.338Z" fill="url(#paint10_linear_4636_31623)"/>
<path d="M485.336 169.282C485.336 169.282 487.764 168.107 488.292 167.496C488.819 166.885 487.869 164.583 489.4 162.468C490.931 160.353 494.204 160.965 494.995 163.502C495.787 166.039 493.73 169.235 492.779 170.221C491.828 171.208 485.336 175.343 485.336 175.343" fill="url(#paint11_linear_4636_31623)"/>
<path d="M487.077 174.183C487.006 174.559 486.573 175.201 485.733 176.077C482.652 179.283 474.163 185.559 458.862 192.731C458.56 193.828 458.323 194.946 458.145 196.064C457.577 199.633 457.587 203.241 457.778 206.483C457.824 207.317 457.884 208.13 457.949 208.91C458.229 212.327 458.608 215.148 458.507 216.783C458.46 217.5 458.318 217.985 458.046 218.201C457.702 218.469 457.34 218.712 456.961 218.929C449.319 223.296 435.409 216.773 433.158 214.81C432.98 214.657 432.873 214.53 432.851 214.441C432.459 213.123 433.976 211.714 434.823 209.457C434.964 209.072 435.107 208.212 435.249 207.036C435.652 203.561 436.002 197.344 436.127 192.666C436.197 189.68 436.179 187.324 436.026 186.701C436.02 186.691 436.02 186.68 436.02 186.68C435.6 185.145 422.785 167.911 418.941 161.804C418.236 160.692 417.834 159.948 417.856 159.737C417.998 158.361 420.954 153.473 421.588 153.536C421.695 153.547 422.087 153.985 422.678 154.712C425.647 158.383 433.632 169.478 435.101 170.891C436.476 172.215 443.471 178.771 446.47 181.581C447.316 182.367 447.843 182.862 447.843 182.862C449.467 182.836 451.094 182.704 452.724 182.478C467.125 180.5 481.277 171.525 484.98 169.03C485.59 168.619 485.917 168.386 485.917 168.386C485.917 168.386 487.396 172.428 487.077 174.183Z" fill="#F47920"/>
<path d="M451.138 188.533C446.227 189.239 446.212 183.55 446.467 181.583C447.314 182.368 447.841 182.864 447.841 182.864C449.465 182.838 451.092 182.706 452.722 182.48C453.333 184.721 452.843 188.291 451.138 188.533Z" fill="#C54527"/>
<path d="M456.113 176.337C455.159 176.848 453.914 177.023 452.327 176.658C451.107 176.384 449.678 175.788 448.013 174.78C448.013 174.78 446.697 176.189 446.592 178.772C443.107 176.094 442.261 173.414 445.217 172.428C444.003 167.729 446.592 166.743 450.916 166.511C455.247 166.274 456.248 170.223 458.835 170.129C458.993 172.235 458.322 175.171 456.113 176.337Z" fill="#262166"/>
<path d="M456.114 176.335C456.066 176.715 455.995 177.152 455.894 177.622C455.313 180.371 453.797 184.204 451.511 183.993C451.392 183.988 451.269 183.967 451.137 183.93C449.082 183.355 447.844 181.578 447.198 180.271C446.772 179.422 446.594 178.773 446.594 178.773C446.629 177.956 446.782 177.254 446.979 176.679C447.399 175.439 448.015 174.781 448.015 174.781C449.68 175.788 451.108 176.385 452.329 176.659C453.915 177.021 455.16 176.847 456.114 176.335Z" fill="url(#paint12_linear_4636_31623)"/>
<path d="M451.504 185.612C451.48 186.609 451.326 187.389 450.58 187.436C449.069 187.531 447.061 185.775 447.168 183.866C447.203 183.218 447.216 182.527 447.216 181.894C447.216 181.255 447.203 180.676 447.191 180.27C447.837 181.578 449.075 183.354 451.13 183.929C451.262 183.966 451.386 183.987 451.504 183.992C451.498 184.547 451.522 185.106 451.504 185.612Z" fill="url(#paint13_linear_4636_31623)"/>
<path d="M487.073 174.183C487.002 174.558 486.569 175.201 485.729 176.077C485.769 173.836 485.219 170.435 484.977 169.031C485.586 168.62 485.913 168.387 485.913 168.387C485.913 168.387 487.393 172.428 487.073 174.183Z" fill="#C54527"/>
<path d="M422.678 154.715C420.428 156.429 419.33 160.164 418.941 161.809C418.236 160.696 417.834 159.953 417.856 159.742C417.998 158.365 420.954 153.478 421.588 153.541C421.696 153.55 422.087 153.987 422.678 154.715Z" fill="#C54527"/>
<path d="M457.95 208.91C452.916 209.558 443.443 210.134 435.25 207.038C435.653 203.563 436.003 197.346 436.127 192.668C440.185 194.197 448.946 196.918 458.147 196.063C457.43 200.553 457.631 205.103 457.95 208.91Z" fill="#FCAF17"/>
<path opacity="0.25" d="M454.403 219.435C452.978 219.823 451.414 219.953 449.788 219.89C447.228 219.79 444.551 219.211 442.102 218.443C439.655 217.676 437.451 216.724 435.842 215.89C435.037 215.472 434.388 215.088 433.936 214.776C433.709 214.619 433.541 214.487 433.429 214.384C433.374 214.332 433.339 214.294 433.321 214.27C433.32 214.27 433.32 214.269 433.319 214.269C433.206 213.838 433.375 213.335 433.809 212.541C433.903 212.369 434.007 212.186 434.118 211.992C434.497 211.329 434.948 210.54 435.288 209.633L435.289 209.63C435.455 209.18 435.603 208.256 435.743 207.097L435.743 207.095C436.149 203.598 436.499 197.364 436.624 192.68L436.624 192.678C436.645 191.783 436.658 190.943 436.663 190.188C437.641 193.269 439.041 198.068 439.921 202.782L439.921 202.783C440.201 204.277 440.416 205.62 440.612 206.841C440.673 207.227 440.733 207.6 440.793 207.963C441.038 209.465 441.277 210.781 441.609 211.934C442.284 214.277 443.355 215.969 445.651 217.314L445.652 217.314C446.989 218.096 448.843 218.676 450.833 219.035C451.988 219.243 453.201 219.379 454.403 219.435ZM433.31 214.255C433.31 214.255 433.31 214.255 433.311 214.257C433.31 214.255 433.31 214.255 433.31 214.255Z" fill="#0C0C0C" stroke="#0C0C0C"/>
<path d="M475.778 240.631C475.778 243.89 462.544 261.947 459.803 265.653C459.489 266.081 459.311 266.318 459.311 266.318C459.311 266.318 457.605 266.144 456.2 265.722C455.224 265.42 454.389 265.009 454.389 264.44C454.389 264.323 454.413 264.144 454.454 263.907C454.922 261.391 457.83 252.289 461.563 240.256C459.597 238.126 445.8 229.978 445.8 229.978C445.8 229.978 445.794 229.988 445.788 230.009C445.19 231.237 426.038 270.662 423.863 274.338C423.786 274.47 423.731 274.554 423.697 274.592C422.714 275.72 418.631 275.842 418.348 273.463C418.348 273.458 418.348 273.458 418.348 273.453C417.175 263.487 426.83 233.426 431.327 220.133C432.133 217.749 432.772 215.904 433.157 214.812C435.408 216.773 449.318 223.296 456.96 218.931C457.339 218.714 457.701 218.472 458.045 218.202C458.317 217.987 458.459 217.501 458.507 216.785C458.648 216.921 458.798 217.069 458.945 217.227C464.274 222.653 475.778 237.492 475.778 240.631Z" fill="#9DC2E7"/>
<path d="M425.213 279.854C424.686 282.201 410.746 289.157 412.015 284.949C413.046 281.536 416.919 275.583 418.347 273.453C418.347 273.458 418.347 273.458 418.347 273.463C418.632 275.842 422.714 275.722 423.696 274.592C423.731 274.555 423.785 274.471 423.862 274.338C424.573 276.153 425.557 278.336 425.213 279.854Z" fill="#262166"/>
<path d="M464.382 277.786C463.321 278.256 449.601 273.557 449.915 271.959C450.235 270.361 454.452 263.907 454.452 263.907C454.411 264.144 454.387 264.323 454.387 264.44C454.387 265.815 459.309 266.318 459.309 266.318C459.309 266.318 459.487 266.08 459.801 265.652C460.413 270.531 465.372 277.344 464.382 277.786Z" fill="#262166"/>
<g opacity="0.25">
<path d="M444.003 228.632C444.003 228.632 428.799 255.211 423.098 273.452Z" fill="#0C0C0C"/>
<path d="M444.003 228.632C444.003 228.632 428.799 255.211 423.098 273.452" stroke="#0C0C0C" stroke-width="0.4597" stroke-miterlimit="10"/>
</g>
<g opacity="0.25">
<path d="M447.594 228.632C447.594 228.632 464.485 238.5 465.121 240.098C465.753 241.696 456.357 263.908 456.357 263.908" fill="#0C0C0C"/>
<path d="M447.594 228.632C447.594 228.632 464.485 238.5 465.121 240.098C465.753 241.696 456.357 263.908 456.357 263.908" stroke="#0C0C0C" stroke-width="0.4597" stroke-miterlimit="10"/>
</g>
<path opacity="0.25" d="M442.902 219.723C447.578 221.042 453.06 221.637 457.056 219.448C455.701 220.728 453.621 221.309 451.213 221.455C447.675 221.668 443.664 220.916 440.918 220.282L440.918 220.282C437.941 219.596 434.586 219.514 432.035 219.601C432.594 217.953 433.061 216.599 433.403 215.621C434.124 216.114 435.216 216.724 436.539 217.347C438.301 218.176 440.516 219.049 442.902 219.723Z" fill="#0C0C0C" stroke="#0C0C0C"/>
<path opacity="0.25" d="M446.657 229.904C446.567 229.851 446.486 229.802 446.416 229.76C446.431 229.719 446.448 229.675 446.466 229.629C446.588 229.317 446.762 228.902 446.973 228.482C447.185 228.058 447.426 227.647 447.678 227.334C447.921 227.033 448.12 226.89 448.257 226.847C448.288 226.854 448.336 226.869 448.404 226.895C448.552 226.953 448.754 227.051 449.008 227.19C449.513 227.467 450.181 227.884 450.965 228.407C452.529 229.452 454.519 230.896 456.525 232.423C458.53 233.95 460.544 235.556 462.155 236.923C462.961 237.606 463.663 238.227 464.211 238.747C464.769 239.275 465.14 239.673 465.31 239.917L465.311 239.917C465.318 239.928 465.355 239.998 465.359 240.189C465.363 240.373 465.336 240.619 465.271 240.932C465.142 241.557 464.877 242.373 464.505 243.347C463.769 245.275 462.648 247.734 461.44 250.384L461.407 250.455C460.19 253.124 458.892 255.974 457.838 258.622C456.894 260.991 456.131 263.233 455.803 265.055C455.566 264.962 455.362 264.864 455.202 264.761C454.907 264.573 454.893 264.458 454.893 264.442C454.893 264.374 454.909 264.237 454.951 263.997C455.179 262.772 456.012 259.902 457.267 255.798C458.052 253.23 458.998 250.194 460.055 246.801C460.683 244.787 461.349 242.647 462.045 240.405L462.13 240.13L461.935 239.918C461.396 239.334 460.112 238.393 458.555 237.339C456.978 236.27 455.063 235.048 453.213 233.895C451.363 232.742 449.575 231.655 448.249 230.857C447.586 230.458 447.039 230.131 446.657 229.904ZM448.231 226.842C448.231 226.842 448.232 226.842 448.234 226.842L448.231 226.842Z" fill="#0C0C0C" stroke="#0C0C0C"/>
<path opacity="0.25" d="M451.266 176.883C451.593 176.99 451.91 177.078 452.216 177.146C453.474 177.435 454.56 177.409 455.48 177.134C455.472 177.177 455.464 177.221 455.455 177.265C453.986 177.832 452.518 177.48 451.266 176.883Z" fill="#0C0C0C" stroke="#0C0C0C"/>
<path opacity="0.25" d="M451.018 184.949C449.805 184.505 448.926 183.603 448.341 182.784C449.029 183.489 449.906 184.103 451.004 184.411L451.004 184.411C451.006 184.411 451.009 184.412 451.012 184.413C451.012 184.52 451.014 184.624 451.015 184.726C451.016 184.801 451.017 184.875 451.018 184.949Z" fill="#0C0C0C" stroke="#0C0C0C"/>
<path opacity="0.25" d="M457.416 196.97C457.461 196.868 457.505 196.768 457.548 196.671C457.328 198.248 457.216 199.824 457.176 201.367C457.162 201.262 457.148 201.158 457.135 201.055C456.931 199.378 456.981 197.963 457.416 196.97Z" fill="#0C0C0C" stroke="#0C0C0C"/>
<path d="M339.625 232.026L294.046 225.054L293.975 225.418L193.321 326.3L191.242 351.518L205.679 353.727L230.667 357.55L264.207 362.682L267.395 363.167L264.996 375.607L263.883 381.362L260.215 400.372L289.882 404.912L305.795 407.344L312.974 370.139L332.996 373.197L339.038 341.888L319.016 338.83L339.625 232.026ZM282.726 283.722L273.431 331.858L262.312 330.155L237.993 326.438L251.458 312.131L254.539 308.856L280.214 281.577L283.845 277.918L282.726 283.722Z" fill="#0077DB"/>
<path opacity="0.25" d="M264.209 362.682L230.668 357.55C234.619 345.932 239.549 329.922 237.996 326.437L262.315 330.153C263.872 332.465 265.104 335.643 265.437 340.006C266.028 347.726 264.736 355.61 264.209 362.682Z" fill="#0077DB"/>
<path d="M239.446 326.662C239.446 326.662 243.103 322.145 251.338 323.556C259.574 324.966 260.207 333.989 256.618 343.951C253.028 353.914 252.184 388.687 253.872 399.965C255.562 411.242 254.506 416.506 250.494 416.881C246.483 417.258 244.581 403.347 246.905 393.574C249.228 383.8 249.016 374.777 245.215 376.281C241.414 377.786 244.581 381.545 242.681 384.928C240.78 388.31 235.08 386.243 235.291 379.852C235.502 373.461 246.982 331.927 239.446 326.662Z" fill="#9DC2E7"/>
<path opacity="0.25" d="M319.017 338.83L339.04 341.888L332.998 373.197L312.975 370.139L305.795 407.344L289.883 404.911L317.851 249.566L339.626 232.026L319.017 338.83Z" fill="#0077DB"/>
<path d="M305.395 0.181641V242.31" stroke="#0A2533" stroke-width="0.9195" stroke-miterlimit="10"/>
<path d="M382.032 194.035C386.58 194.035 390.267 190.753 390.267 186.705C390.267 182.656 386.58 179.374 382.032 179.374C377.484 179.374 373.797 182.656 373.797 186.705C373.797 190.753 377.484 194.035 382.032 194.035Z" fill="#F47920"/>
<path d="M668.555 287.196C673.104 287.196 676.79 283.914 676.79 279.865C676.79 275.816 673.104 272.534 668.555 272.534C664.007 272.534 660.32 275.816 660.32 279.865C660.32 283.914 664.007 287.196 668.555 287.196Z" fill="#6561AB"/>
<path d="M237.989 233.672C242.537 233.672 246.224 230.39 246.224 226.341C246.224 222.292 242.537 219.01 237.989 219.01C233.441 219.01 229.754 222.292 229.754 226.341C229.754 230.39 233.441 233.672 237.989 233.672Z" fill="#9DC2E7"/>
<path d="M373.798 457.857C378.346 457.857 382.033 454.575 382.033 450.526C382.033 446.477 378.346 443.195 373.798 443.195C369.249 443.195 365.562 446.477 365.562 450.526C365.562 454.575 369.249 457.857 373.798 457.857Z" fill="#F26647"/>
<path d="M621.473 211.599C623.227 211.599 624.649 210.333 624.649 208.772C624.649 207.21 623.227 205.944 621.473 205.944C619.719 205.944 618.297 207.21 618.297 208.772C618.297 210.333 619.719 211.599 621.473 211.599Z" fill="#F47920"/>
<path d="M378.856 255.627C380.61 255.627 382.032 254.361 382.032 252.799C382.032 251.238 380.61 249.972 378.856 249.972C377.102 249.972 375.68 251.238 375.68 252.799C375.68 254.361 377.102 255.627 378.856 255.627Z" fill="#9DC2E7"/>
<path d="M283.84 217.344C285.595 217.344 287.017 216.078 287.017 214.516C287.017 212.954 285.595 211.689 283.84 211.689C282.086 211.689 280.664 212.954 280.664 214.516C280.664 216.078 282.086 217.344 283.84 217.344Z" fill="#6561AB"/>
<path d="M713.543 59.5593C713.543 59.5593 700.849 48.2814 676.791 52.7928C652.731 57.3042 635.821 91.1379 618.305 98.6557C600.787 106.175 566.253 128.376 563.672 147.349C597.41 122.34 610.079 133.242 632.038 130.234C653.998 127.227 655.687 104.295 687.361 105.047C719.033 105.798 752.817 140.832 784.49 121.248C816.162 101.664 853.325 78.3562 823.341 59.1842C793.356 40.0123 732.546 69.3334 713.543 59.5593Z" fill="url(#paint14_linear_4636_31623)"/>
<path d="M199.613 135.784C199.613 135.784 196.309 151.475 214.061 166.618C231.812 181.762 272.736 175.113 289.589 183.751C306.442 192.388 346.513 205.258 365.571 196.454C323.344 185.756 326.313 170.295 311.139 155.846C295.966 141.399 273.74 153.089 256.577 129.381C239.413 105.673 252.859 61.0809 216.832 48.8407C180.803 36.6004 138.223 22.4239 137.345 55.2779C136.468 88.132 197.964 116.301 199.613 135.784Z" fill="url(#paint15_linear_4636_31623)"/>
<path d="M812.783 225.739C812.783 225.739 761.263 276.059 750.282 335.056C739.303 394.055 686.49 390.295 668.555 418.114C650.619 445.932 607.875 448.188 588.284 459.466C568.693 470.744 524.059 451.196 516.392 459.466C508.727 467.737 556.427 480.519 618.305 481.271C680.182 482.022 692.004 439.167 746.904 433.152C801.804 427.137 856.702 406.085 876.128 326.386C895.555 246.689 862.615 204.038 812.783 225.739Z" fill="url(#paint16_linear_4636_31623)"/>
<path d="M69.216 246.004C69.216 246.004 120.736 296.324 131.717 355.321C142.697 414.319 195.509 410.558 213.444 438.378C231.379 466.197 274.124 468.453 293.715 479.731C313.306 491.009 357.94 471.46 365.607 479.731C373.273 488.001 325.572 500.783 263.695 501.535C201.818 502.286 189.995 459.43 135.095 453.416C80.197 447.401 25.2959 426.349 5.87112 346.651C-13.5563 266.954 19.3841 224.301 69.216 246.004Z" fill="url(#paint17_linear_4636_31623)"/>
<defs>
<linearGradient id="paint0_linear_4636_31623" x1="571.543" y1="308.289" x2="579.581" y2="452.761" gradientUnits="userSpaceOnUse">
<stop stop-color="#FCAF17"/>
<stop offset="1" stop-color="#F47920"/>
</linearGradient>
<linearGradient id="paint1_linear_4636_31623" x1="187.581" y1="269.228" x2="188.503" y2="259.431" gradientUnits="userSpaceOnUse">
<stop stop-color="#FBC4AF"/>
<stop offset="1" stop-color="#EA8B69"/>
</linearGradient>
<linearGradient id="paint2_linear_4636_31623" x1="202.212" y1="265.957" x2="192.09" y2="266.786" gradientUnits="userSpaceOnUse">
<stop stop-color="#FBC4AF"/>
<stop offset="1" stop-color="#EA8B69"/>
</linearGradient>
<linearGradient id="paint3_linear_4636_31623" x1="188.947" y1="302.784" x2="196.421" y2="272.635" gradientUnits="userSpaceOnUse">
<stop stop-color="#FBC4AF"/>
<stop offset="1" stop-color="#EA8B69"/>
</linearGradient>
<linearGradient id="paint4_linear_4636_31623" x1="559.634" y1="193.898" x2="559.969" y2="185.296" gradientUnits="userSpaceOnUse">
<stop stop-color="#FBC4AF"/>
<stop offset="1" stop-color="#EA8B69"/>
</linearGradient>
<linearGradient id="paint5_linear_4636_31623" x1="561.508" y1="197.556" x2="561.257" y2="191.445" gradientUnits="userSpaceOnUse">
<stop stop-color="#FBC4AF"/>
<stop offset="1" stop-color="#EA8B69"/>
</linearGradient>
<linearGradient id="paint6_linear_4636_31623" x1="540.335" y1="243.668" x2="546.388" y2="199.473" gradientUnits="userSpaceOnUse">
<stop stop-color="#FBC4AF"/>
<stop offset="1" stop-color="#EA8B69"/>
</linearGradient>
<linearGradient id="paint7_linear_4636_31623" x1="582.853" y1="190.616" x2="587.572" y2="218.573" gradientUnits="userSpaceOnUse">
<stop stop-color="#FBC4AF"/>
<stop offset="1" stop-color="#EA8B69"/>
</linearGradient>
<linearGradient id="paint8_linear_4636_31623" x1="415.168" y1="149.671" x2="418.212" y2="156.937" gradientUnits="userSpaceOnUse">
<stop stop-color="#FBC4AF"/>
<stop offset="1" stop-color="#EA8B69"/>
</linearGradient>
<linearGradient id="paint9_linear_4636_31623" x1="409.565" y1="149.497" x2="418.403" y2="153.663" gradientUnits="userSpaceOnUse">
<stop stop-color="#FBC4AF"/>
<stop offset="1" stop-color="#EA8B69"/>
</linearGradient>
<linearGradient id="paint10_linear_4636_31623" x1="414.833" y1="146.867" x2="419.702" y2="158.488" gradientUnits="userSpaceOnUse">
<stop stop-color="#FBC4AF"/>
<stop offset="1" stop-color="#EA8B69"/>
</linearGradient>
<linearGradient id="paint11_linear_4636_31623" x1="499.018" y1="157.936" x2="484.465" y2="177.369" gradientUnits="userSpaceOnUse">
<stop stop-color="#FBC4AF"/>
<stop offset="1" stop-color="#EA8B69"/>
</linearGradient>
<linearGradient id="paint12_linear_4636_31623" x1="452.074" y1="185.009" x2="450.649" y2="166.371" gradientUnits="userSpaceOnUse">
<stop stop-color="#FBC4AF"/>
<stop offset="1" stop-color="#EA8B69"/>
</linearGradient>
<linearGradient id="paint13_linear_4636_31623" x1="448.997" y1="185.154" x2="449.67" y2="180.337" gradientUnits="userSpaceOnUse">
<stop stop-color="#FBC4AF"/>
<stop offset="1" stop-color="#EA8B69"/>
</linearGradient>
<linearGradient id="paint14_linear_4636_31623" x1="759.615" y1="82.2969" x2="478.725" y2="155.33" gradientUnits="userSpaceOnUse">
<stop stop-color="white" stop-opacity="0"/>
<stop offset="1" stop-color="#9DC2E7"/>
</linearGradient>
<linearGradient id="paint15_linear_4636_31623" x1="194.725" y1="89.0904" x2="386.58" y2="287.555" gradientUnits="userSpaceOnUse">
<stop stop-color="white" stop-opacity="0"/>
<stop offset="1" stop-color="#9DC2E7"/>
</linearGradient>
<linearGradient id="paint16_linear_4636_31623" x1="789.222" y1="338.892" x2="386.026" y2="443.724" gradientUnits="userSpaceOnUse">
<stop stop-color="white" stop-opacity="0"/>
<stop offset="1" stop-color="#9DC2E7"/>
</linearGradient>
<linearGradient id="paint17_linear_4636_31623" x1="92.7769" y1="359.154" x2="495.973" y2="463.987" gradientUnits="userSpaceOnUse">
<stop stop-color="white" stop-opacity="0"/>
<stop offset="1" stop-color="#9DC2E7"/>
</linearGradient>
</defs>
</svg>
