<svg width="38" height="48" viewBox="0 0 38 48" fill="none" xmlns="http://www.w3.org/2000/svg">
<path d="M38.0004 33.8032C38.0004 46.0733 28.7859 48 26.0824 48H2.40621C1.34238 48 0.478516 47.1294 0.478516 46.0571V2.41858C0.478516 1.3383 1.34238 0.467623 2.40621 0.467623H20.1153C20.1153 0.467623 32.4333 -0.30631 32.4333 12.3991C32.4333 12.3991 32.7773 17.5828 29.6258 20.8479C29.4018 21.0817 29.1619 21.2993 28.9059 21.5089C28.618 21.7427 28.306 21.9604 27.9701 22.1619C27.9701 22.1619 28.434 22.2829 29.1619 22.565C29.1859 22.5731 29.2179 22.5892 29.2419 22.5973C31.9454 23.6614 38.0004 26.8297 38.0004 33.8032Z" fill="url(#paint0_linear_917_2572)"/>
<path d="M38.0004 33.8032C38.0004 46.0733 28.7859 48 26.0824 48H2.40621C1.34238 48 0.478516 47.1294 0.478516 46.0571V2.41858C0.478516 1.3383 1.34238 0.467623 2.40621 0.467623H20.1153C20.1153 0.467623 32.4333 -0.30631 32.4333 12.3991C32.4333 12.3991 32.7773 17.5828 29.6258 20.8479C29.4018 21.0817 29.1619 21.2993 28.9059 21.5089C28.618 21.7427 28.306 21.9604 27.9701 22.1619C27.9701 22.1619 28.434 22.2829 29.1619 22.565C29.1859 22.5731 29.2179 22.5892 29.2419 22.5973C31.9454 23.6614 38.0004 26.8297 38.0004 33.8032Z" fill="url(#paint1_linear_917_2572)"/>
<path d="M29.1608 22.5651L24.2576 23.0972L27.0731 31.554L24.7455 31.6588L19.5463 24.2581C19.5463 24.2581 18.8105 23.1133 17.4987 22.9601C16.3868 22.8392 13.4193 22.9279 12.5155 22.944C12.3235 22.9601 12.1315 22.9118 11.9556 22.815C11.5876 22.6054 11.0117 22.1943 11.0117 21.5896C11.0117 20.8721 11.7636 20.4287 12.1395 20.2514C12.2595 20.1869 12.3955 20.1627 12.5315 20.1627L17.3147 20.0982C17.9546 20.0659 18.5465 19.7354 18.9144 19.2114L24.8175 10.7868L26.7772 10.5046L24.0816 19.7999C24.0816 19.7999 27.0331 20.3884 29.6247 20.8479C29.4007 21.0817 29.1608 21.2994 28.9048 21.509C28.6169 21.7428 28.3049 21.9605 27.969 22.162C27.969 22.162 28.4329 22.2829 29.1608 22.5651Z" fill="white"/>
<defs>
<linearGradient id="paint0_linear_917_2572" x1="0.481395" y1="24.2304" x2="38.0034" y2="24.2304" gradientUnits="userSpaceOnUse">
<stop stop-color="#1D91CC"/>
<stop offset="0.7728" stop-color="#5091FD"/>
<stop offset="1" stop-color="#6894FD"/>
</linearGradient>
<linearGradient id="paint1_linear_917_2572" x1="0.481395" y1="24.2304" x2="38.0034" y2="24.2304" gradientUnits="userSpaceOnUse">
<stop stop-color="#1D91CC"/>
<stop offset="0.0001" stop-color="#1D91CC"/>
<stop offset="0.71875" stop-color="#50B2E4"/>
<stop offset="1" stop-color="#53A2FF"/>
</linearGradient>
</defs>
</svg>
