<svg width="16" height="16" viewBox="0 0 16 16" fill="none" xmlns="http://www.w3.org/2000/svg">
<path d="M10 15.1667H6.00004C2.38004 15.1667 0.833374 13.62 0.833374 10V6C0.833374 2.38 2.38004 0.833328 6.00004 0.833328H7.33337C7.60671 0.833328 7.83337 1.05999 7.83337 1.33333C7.83337 1.60666 7.60671 1.83333 7.33337 1.83333H6.00004C2.92671 1.83333 1.83337 2.92666 1.83337 6V10C1.83337 13.0733 2.92671 14.1667 6.00004 14.1667H10C13.0734 14.1667 14.1667 13.0733 14.1667 10V8.66666C14.1667 8.39333 14.3934 8.16666 14.6667 8.16666C14.94 8.16666 15.1667 8.39333 15.1667 8.66666V10C15.1667 13.62 13.62 15.1667 10 15.1667Z" fill="white"/>
<path d="M5.66664 11.7933C5.25997 11.7933 4.88664 11.6467 4.61331 11.38C4.28664 11.0533 4.14664 10.58 4.21997 10.08L4.50664 8.07333C4.55997 7.68666 4.81331 7.18666 5.08664 6.91333L10.34 1.65999C11.6666 0.333327 13.0133 0.333327 14.34 1.65999C15.0666 2.38666 15.3933 3.12666 15.3266 3.86666C15.2666 4.46666 14.9466 5.05333 14.34 5.65333L9.08664 10.9067C8.8133 11.18 8.3133 11.4333 7.92664 11.4867L5.91997 11.7733C5.83331 11.7933 5.74664 11.7933 5.66664 11.7933ZM11.0466 2.36666L5.7933 7.61999C5.66664 7.74666 5.51997 8.03999 5.4933 8.21333L5.20664 10.22C5.17997 10.4133 5.21997 10.5733 5.31997 10.6733C5.41997 10.7733 5.57997 10.8133 5.7733 10.7867L7.77997 10.5C7.9533 10.4733 8.2533 10.3267 8.3733 10.2L13.6266 4.94666C14.06 4.51333 14.2866 4.12666 14.32 3.76666C14.36 3.33333 14.1333 2.87333 13.6266 2.35999C12.56 1.29333 11.8266 1.59333 11.0466 2.36666Z" fill="white"/>
<path d="M13.2333 6.55334C13.1866 6.55334 13.14 6.54667 13.1 6.53334C11.3466 6.04001 9.95329 4.64667 9.45996 2.89334C9.38662 2.62667 9.53996 2.35334 9.80662 2.27334C10.0733 2.20001 10.3466 2.35334 10.42 2.62001C10.82 4.04001 11.9466 5.16667 13.3666 5.56667C13.6333 5.64001 13.7866 5.92001 13.7133 6.18667C13.6533 6.41334 13.4533 6.55334 13.2333 6.55334Z" fill="white"/>
</svg>
