<svg width="24" height="24" viewBox="0 0 24 24" fill="none" xmlns="http://www.w3.org/2000/svg">
<path d="M22.5501 15.4198C22.5501 15.6398 22.5101 15.8698 22.4201 16.0798C22.2201 16.5498 21.8301 16.9098 21.3401 17.0698L20.0201 17.5098C19.4201 17.7098 18.6701 17.5298 18.2201 17.0898L15.9401 14.8198C15.9101 14.7898 15.8001 14.7498 15.7501 14.7498H13.2801L15.2501 19.3098C15.5101 19.9198 15.4801 20.5398 15.1701 21.0098C14.8601 21.4798 14.3001 21.7598 13.6501 21.7598H12.3601C11.3801 21.7598 10.3301 21.0598 9.98007 20.1698L7.64007 14.7598H4.80007C3.59007 14.7598 2.20007 13.9098 1.64007 12.8298C1.38007 12.3098 1.38007 11.7098 1.64007 11.1998C2.20007 10.1098 3.58007 9.25977 4.79007 9.25977H7.63007L9.97007 3.81977C10.3501 2.92977 11.3701 2.24977 12.3601 2.24977H13.6501C14.3101 2.24977 14.8601 2.51977 15.1701 2.99977C15.4801 3.47976 15.5101 4.08977 15.2601 4.69977L13.2901 9.25977H15.7601C15.8001 9.25977 15.9001 9.21976 15.9301 9.18976L18.2201 6.90977C18.6601 6.46977 19.4301 6.28977 20.0201 6.48977L21.3401 6.92977C21.8301 7.09977 22.2201 7.45977 22.4101 7.93977C22.6001 8.40977 22.5801 8.92977 22.3601 9.37977C22.3301 9.42977 22.3001 9.47976 22.2601 9.52977L20.3001 11.8598C20.2301 11.9398 20.2401 12.0998 20.3001 12.1698L22.2601 14.4998C22.3001 14.5398 22.3301 14.5898 22.3501 14.6398C22.4901 14.8798 22.5501 15.1498 22.5501 15.4198ZM11.6401 14.4398C11.6401 14.2098 11.7001 13.9898 11.8301 13.7998C12.0601 13.4498 12.4501 13.2498 12.9101 13.2498H15.7601C16.1901 13.2498 16.7001 13.4598 17.0001 13.7598L19.2801 16.0298C19.3301 16.0698 19.4801 16.1098 19.5401 16.0898L20.8701 15.6498C20.9701 15.6198 21.0101 15.5498 21.0301 15.5098C21.0401 15.4798 21.0601 15.4298 21.0401 15.3698L19.1501 13.1298C18.6101 12.4998 18.6101 11.5098 19.1501 10.8798L21.0301 8.64977C21.0401 8.57977 21.0301 8.52977 21.0201 8.49977C21.0001 8.45977 20.9601 8.37977 20.8601 8.34977L19.5401 7.90977C19.4701 7.88976 19.3201 7.92976 19.2801 7.96976L17.0001 10.2398C16.7201 10.5398 16.2001 10.7598 15.7601 10.7598H12.9101C12.4601 10.7598 12.0701 10.5698 11.8401 10.2298C11.6101 9.88976 11.5801 9.44977 11.7601 9.02977L13.8801 4.10977C13.9401 3.95977 13.9401 3.85977 13.9201 3.82977C13.9001 3.79976 13.8101 3.75977 13.6501 3.75977H12.3601C11.9801 3.75977 11.4901 4.07977 11.3501 4.41977L8.94007 9.99977C8.75007 10.4398 8.27007 10.7498 7.79007 10.7498H4.79007C4.13007 10.7498 3.28007 11.2698 2.98007 11.8698C2.94007 11.9498 2.94007 12.0498 2.98007 12.1398C3.28007 12.7198 4.15007 13.2498 4.80007 13.2498H7.80007C8.27007 13.2498 8.76007 13.5598 8.95007 13.9998L11.3601 19.5798C11.5001 19.9298 11.9901 20.2498 12.3601 20.2498H13.6501C13.8101 20.2498 13.9001 20.2098 13.9201 20.1798C13.9401 20.1498 13.9401 20.0498 13.8801 19.8998L11.7601 14.9898C11.6801 14.8098 11.6401 14.6198 11.6401 14.4398Z" fill="#404040"/>
</svg>
