<svg width="25" height="24" viewBox="0 0 25 24" fill="none" xmlns="http://www.w3.org/2000/svg">
<path d="M13.5 11.9H7.5C7.09 11.9 6.75 11.56 6.75 11.15C6.75 10.74 7.09 10.4 7.5 10.4H13.5C13.91 10.4 14.25 10.74 14.25 11.15C14.25 11.56 13.91 11.9 13.5 11.9Z" fill="#ADADAD"/>
<path d="M2.5 11.9001C2.09 11.9001 1.75 11.5601 1.75 11.1501V6.53009C1.75 4.08009 3.74 2.09009 6.19 2.09009H11.81C14.38 2.09009 16.25 3.80009 16.25 6.15009C16.25 6.56009 15.91 6.90009 15.5 6.90009C15.09 6.90009 14.75 6.56009 14.75 6.15009C14.75 4.39009 13.22 3.59009 11.81 3.59009H6.19C4.57 3.59009 3.25 4.91009 3.25 6.53009V11.1501C3.25 11.5701 2.91 11.9001 2.5 11.9001Z" fill="#ADADAD"/>
<path d="M16.5 21.9H6.5C3.88 21.9 1.75 19.77 1.75 17.15V10.15C1.75 7.53002 3.88 5.40002 6.5 5.40002H16.5C19.12 5.40002 21.25 7.53002 21.25 10.15V11.6C21.25 12.01 20.91 12.35 20.5 12.35H19.42C19.07 12.35 18.75 12.48 18.52 12.72L18.51 12.73C18.18 13.06 18.05 13.52 18.17 13.97C18.32 14.53 18.91 14.94 19.57 14.94H20.5C20.91 14.94 21.25 15.28 21.25 15.69V17.14C21.25 19.77 19.12 21.9 16.5 21.9ZM6.5 6.90002C4.71 6.90002 3.25 8.36002 3.25 10.15V17.15C3.25 18.94 4.71 20.4 6.5 20.4H16.5C18.29 20.4 19.75 18.94 19.75 17.15V16.45H19.57C18.22 16.45 17.05 15.6 16.72 14.37C16.46 13.4 16.74 12.37 17.45 11.67C17.97 11.14 18.67 10.85 19.42 10.85H19.75V10.15C19.75 8.36002 18.29 6.90002 16.5 6.90002H6.5Z" fill="#ADADAD"/>
<path d="M21.4699 16.45H19.5399C18.0299 16.45 16.7499 15.33 16.6299 13.89C16.5499 13.06 16.8499 12.25 17.4499 11.66C17.9499 11.14 18.6599 10.85 19.4099 10.85H21.4599C22.4399 10.85 23.2399 11.64 23.2399 12.62V14.68C23.2499 15.66 22.4499 16.45 21.4699 16.45ZM19.4199 12.35C19.0699 12.35 18.7499 12.48 18.5199 12.72C18.2299 13 18.0899 13.38 18.1299 13.76C18.1799 14.42 18.8199 14.95 19.5399 14.95H21.4699C21.6199 14.95 21.7499 14.83 21.7499 14.68V12.62C21.7499 12.47 21.6199 12.35 21.4699 12.35H19.4199Z" fill="#ADADAD"/>
</svg>
