<svg width="152" height="45" viewBox="0 0 152 45" fill="none" xmlns="http://www.w3.org/2000/svg">
<rect width="152" height="45" rx="4" fill="#11577A"/>
<path d="M34.3523 22.8816C34.3383 21.3656 35.6237 20.628 35.6825 20.5937C34.9545 19.5574 33.8262 19.4159 33.4297 19.4046C32.482 19.3072 31.5627 19.9582 31.08 19.9582C30.5876 19.9582 29.8442 19.414 29.043 19.43C28.012 19.4455 27.0474 20.0283 26.5184 20.9333C25.4267 22.7786 26.2409 25.4903 27.2869 26.9818C27.8101 27.7123 28.4215 28.528 29.2218 28.4993C30.0047 28.4677 30.2971 28.012 31.2419 28.012C32.178 28.012 32.4526 28.4993 33.2688 28.4809C34.109 28.4677 34.638 27.7471 35.1429 27.0101C35.7475 26.1728 35.9904 25.3482 36 25.3059C35.9802 25.2993 34.3682 24.6986 34.3523 22.8816Z" fill="white"/>
<path d="M32.8106 18.4234C33.2317 17.9092 33.5198 17.2098 33.4398 16.5C32.8303 16.5263 32.0681 16.9116 31.6292 17.4144C31.2409 17.8575 30.894 18.5838 30.9836 19.2667C31.6683 19.3166 32.3712 18.9295 32.8106 18.4234Z" fill="white"/>
<path d="M59.49 26L58.762 23.844H55.122L54.394 26H52.322L56.018 16.046H57.838L61.562 26H59.49ZM55.626 22.304H58.258L56.928 18.37L55.626 22.304ZM68.7631 22.374C68.7631 24.642 67.6571 26.14 65.8931 26.14C65.1231 26.14 64.5071 25.874 64.0451 25.356V28.842H62.1411V18.608H63.9051L63.9751 19.35C64.4371 18.762 65.0811 18.468 65.8791 18.468C67.6711 18.468 68.7631 19.882 68.7631 22.248V22.374ZM64.0451 23.886C64.3111 24.404 64.7591 24.656 65.4031 24.656C66.3131 24.656 66.8451 23.9 66.8731 22.416V22.22C66.8731 20.764 66.3411 19.966 65.3891 19.966C64.7451 19.966 64.2971 20.218 64.0451 20.722V23.886ZM76.6244 22.374C76.6244 24.642 75.5184 26.14 73.7544 26.14C72.9844 26.14 72.3684 25.874 71.9064 25.356V28.842H70.0024V18.608H71.7664L71.8364 19.35C72.2984 18.762 72.9424 18.468 73.7404 18.468C75.5324 18.468 76.6244 19.882 76.6244 22.248V22.374ZM71.9064 23.886C72.1724 24.404 72.6204 24.656 73.2644 24.656C74.1744 24.656 74.7064 23.9 74.7344 22.416V22.22C74.7344 20.764 74.2024 19.966 73.2504 19.966C72.6064 19.966 72.1584 20.218 71.9064 20.722V23.886ZM79.8798 15.5V26H77.9758V15.5H79.8798ZM84.9018 26.14C82.7318 26.14 81.2618 24.684 81.2618 22.486V22.29C81.2618 20.106 82.5358 18.468 84.6918 18.468C86.7078 18.468 87.9258 19.812 87.9258 22.136V22.892H83.1798V22.92C83.2918 23.97 84.0058 24.656 85.0278 24.656C85.8118 24.656 86.3998 24.348 86.8338 23.802L87.7718 24.782C87.1698 25.636 86.1338 26.14 84.9018 26.14ZM83.1938 21.604H86.0638V21.464C86.0358 20.498 85.5458 19.952 84.6778 19.952C83.8798 19.952 83.3338 20.54 83.1938 21.604ZM97.5679 23.396C97.5679 22.948 97.4139 22.626 97.0359 22.374C96.2799 21.856 95.1179 21.688 94.0959 21.184C92.8499 20.568 92.2479 19.742 92.2479 18.664C92.2479 16.928 93.9139 15.892 95.9019 15.892C97.9879 15.892 99.5419 17.124 99.5419 18.958H97.5679C97.5679 17.992 96.9379 17.418 95.8599 17.418C94.8379 17.418 94.2079 17.908 94.2079 18.664C94.2079 19.014 94.3899 19.322 94.7819 19.574C95.6079 20.134 96.8399 20.274 97.9599 20.89C99.0239 21.492 99.5419 22.304 99.5419 23.382C99.5419 25.076 98.1559 26.126 95.9439 26.126C93.9139 26.126 91.9399 25.062 91.9399 22.906H93.9139C93.9139 24.026 94.6139 24.614 95.9439 24.614C96.9659 24.614 97.5679 24.152 97.5679 23.396ZM101.239 16.788H103.129V18.608H104.417V19.952H103.129V23.816C103.129 24.39 103.311 24.628 103.899 24.628C104.095 24.628 104.291 24.6 104.487 24.572V25.972C104.109 26.084 103.717 26.14 103.325 26.14C101.91 26.14 101.239 25.412 101.239 23.984V19.952H100.133V18.608H101.239V16.788ZM105.05 22.234C105.008 20.204 106.226 18.468 108.536 18.468C110.664 18.468 112.022 19.952 112.022 22.29V22.374C112.022 24.67 110.636 26.14 108.55 26.14C106.478 26.14 105.106 24.726 105.05 22.5V22.234ZM106.94 22.374C106.94 23.858 107.528 24.656 108.55 24.656C109.544 24.656 110.132 23.872 110.146 22.43V22.234C110.146 20.792 109.558 19.952 108.536 19.952C107.57 19.952 106.996 20.694 106.94 22.08V22.374ZM117.39 20.316C117.194 20.26 116.928 20.26 116.69 20.26C115.92 20.26 115.416 20.54 115.178 21.1V26H113.274V18.608H115.08L115.122 19.518C115.528 18.818 116.088 18.468 116.802 18.468C117.054 18.468 117.25 18.496 117.418 18.552L117.39 20.316ZM121.611 26.14C119.441 26.14 117.971 24.684 117.971 22.486V22.29C117.971 20.106 119.245 18.468 121.401 18.468C123.417 18.468 124.635 19.812 124.635 22.136V22.892H119.889V22.92C120.001 23.97 120.715 24.656 121.737 24.656C122.521 24.656 123.109 24.348 123.543 23.802L124.481 24.782C123.879 25.636 122.843 26.14 121.611 26.14ZM119.903 21.604H122.773V21.464C122.745 20.498 122.255 19.952 121.387 19.952C120.589 19.952 120.043 20.54 119.903 21.604Z" fill="white"/>
</svg>
