<svg width="152" height="45" viewBox="0 0 152 45" fill="none" xmlns="http://www.w3.org/2000/svg">
<rect width="152" height="45" rx="4" fill="#11577A"/>
<path d="M30.241 16.6852C30.0883 16.8287 30 17.0521 30 17.3413V27.659C30 27.9482 30.0883 28.1716 30.241 28.3151L30.2787 28.3466L36.7186 22.5672V22.4308L30.2787 16.6514L30.241 16.6852Z" fill="url(#paint0_linear_4605_20877)"/>
<path d="M38.863 24.4946L36.7188 22.5672V22.4307L38.8656 20.5033L38.9137 20.5284L41.4561 21.8272C42.1817 22.1957 42.1817 22.8022 41.4561 23.1731L38.9137 24.4696L38.863 24.4946V24.4946Z" fill="url(#paint1_linear_4605_20877)"/>
<path d="M38.9137 24.4696L36.7188 22.499L30.2412 28.3151C30.4822 28.5425 30.8752 28.5699 31.3221 28.3425L38.9137 24.4696" fill="url(#paint2_linear_4605_20877)"/>
<path d="M38.9137 20.5285L31.3221 16.6555C30.8752 16.4304 30.4822 16.4578 30.2412 16.6853L36.7188 22.499L38.9137 20.5285Z" fill="url(#paint3_linear_4605_20877)"/>
<path d="M62.9527 22.416H61.0907V26H59.1447V16.046H62.9807C65.2767 16.046 66.6907 17.404 66.6907 19.28C66.6907 21.226 65.3047 22.416 62.9527 22.416ZM61.0907 20.876H62.9807C64.1007 20.876 64.7027 20.316 64.7027 19.294C64.7027 18.272 64.0727 17.6 63.0227 17.586H61.0907V20.876ZM70.0028 15.5V26H68.0988V15.5H70.0028ZM75.9769 26C75.9069 25.846 75.8369 25.608 75.7809 25.286C75.2909 25.86 74.6469 26.14 73.8629 26.14C72.4349 26.14 71.3569 25.188 71.3569 23.928C71.3569 22.346 72.5889 21.492 74.7869 21.492H75.7109V21.03C75.7109 20.274 75.3189 19.84 74.5489 19.84C73.8629 19.84 73.4149 20.204 73.4149 20.792H71.5389C71.5389 19.504 72.8269 18.468 74.6469 18.468C76.4669 18.468 77.5589 19.42 77.6009 20.974V24.292C77.6009 24.978 77.6989 25.51 77.8809 25.888V26H75.9769ZM73.2609 23.788C73.2609 24.348 73.6669 24.712 74.2829 24.712C74.9269 24.712 75.4729 24.348 75.7109 23.914V22.598H74.9129C73.8069 22.598 73.2609 22.99 73.2609 23.788ZM80.363 18.608L81.805 23.326L81.889 23.018L83.233 18.608H85.249L82.253 27.204L82.127 27.512C81.693 28.492 80.951 28.982 79.943 28.982C79.663 28.968 79.383 28.926 79.089 28.87V27.456C79.187 27.47 79.285 27.47 79.397 27.47C80.125 27.498 80.475 27.26 80.699 26.602L80.937 26.014L78.333 18.608H80.363ZM94.5679 23.396C94.5679 22.948 94.4139 22.626 94.0359 22.374C93.2799 21.856 92.1179 21.688 91.0959 21.184C89.8499 20.568 89.2479 19.742 89.2479 18.664C89.2479 16.928 90.9139 15.892 92.9019 15.892C94.9879 15.892 96.5419 17.124 96.5419 18.958H94.5679C94.5679 17.992 93.9379 17.418 92.8599 17.418C91.8379 17.418 91.2079 17.908 91.2079 18.664C91.2079 19.014 91.3899 19.322 91.7819 19.574C92.6079 20.134 93.8399 20.274 94.9599 20.89C96.0239 21.492 96.5419 22.304 96.5419 23.382C96.5419 25.076 95.1559 26.126 92.9439 26.126C90.9139 26.126 88.9399 25.062 88.9399 22.906H90.9139C90.9139 24.026 91.6139 24.614 92.9439 24.614C93.9659 24.614 94.5679 24.152 94.5679 23.396ZM98.2385 16.788H100.129V18.608H101.417V19.952H100.129V23.816C100.129 24.39 100.311 24.628 100.899 24.628C101.095 24.628 101.291 24.6 101.487 24.572V25.972C101.109 26.084 100.717 26.14 100.325 26.14C98.9105 26.14 98.2385 25.412 98.2385 23.984V19.952H97.1325V18.608H98.2385V16.788ZM102.05 22.234C102.008 20.204 103.226 18.468 105.536 18.468C107.664 18.468 109.022 19.952 109.022 22.29V22.374C109.022 24.67 107.636 26.14 105.55 26.14C103.478 26.14 102.106 24.726 102.05 22.5V22.234ZM103.94 22.374C103.94 23.858 104.528 24.656 105.55 24.656C106.544 24.656 107.132 23.872 107.146 22.43V22.234C107.146 20.792 106.558 19.952 105.536 19.952C104.57 19.952 103.996 20.694 103.94 22.08V22.374ZM114.39 20.316C114.194 20.26 113.928 20.26 113.69 20.26C112.92 20.26 112.416 20.54 112.178 21.1V26H110.274V18.608H112.08L112.122 19.518C112.528 18.818 113.088 18.468 113.802 18.468C114.054 18.468 114.25 18.496 114.418 18.552L114.39 20.316ZM118.611 26.14C116.441 26.14 114.971 24.684 114.971 22.486V22.29C114.971 20.106 116.245 18.468 118.401 18.468C120.417 18.468 121.635 19.812 121.635 22.136V22.892H116.889V22.92C117.001 23.97 117.715 24.656 118.737 24.656C119.521 24.656 120.109 24.348 120.543 23.802L121.481 24.782C120.879 25.636 119.843 26.14 118.611 26.14ZM116.903 21.604H119.773V21.464C119.745 20.498 119.255 19.952 118.387 19.952C117.589 19.952 117.043 20.54 116.903 21.604Z" fill="white"/>
<defs>
<linearGradient id="paint0_linear_4605_20877" x1="36.1468" y1="27.7664" x2="28.3623" y2="19.0957" gradientUnits="userSpaceOnUse">
<stop stop-color="#00A0FF"/>
<stop offset="0.0066" stop-color="#00A1FF"/>
<stop offset="0.2601" stop-color="#00BEFF"/>
<stop offset="0.5122" stop-color="#00D2FF"/>
<stop offset="0.7604" stop-color="#00DFFF"/>
<stop offset="1" stop-color="#00E3FF"/>
</linearGradient>
<linearGradient id="paint1_linear_4605_20877" x1="42.4009" y1="22.4983" x2="29.8267" y2="22.4983" gradientUnits="userSpaceOnUse">
<stop stop-color="#FFE000"/>
<stop offset="0.4087" stop-color="#FFBD00"/>
<stop offset="0.7754" stop-color="#FFA500"/>
<stop offset="1" stop-color="#FF9C00"/>
</linearGradient>
<linearGradient id="paint2_linear_4605_20877" x1="37.7202" y1="21.4278" x2="27.1638" y2="9.6696" gradientUnits="userSpaceOnUse">
<stop stop-color="#FF3A44"/>
<stop offset="1" stop-color="#C31162"/>
</linearGradient>
<linearGradient id="paint3_linear_4605_20877" x1="28.6107" y1="31.7477" x2="33.3246" y2="26.4972" gradientUnits="userSpaceOnUse">
<stop stop-color="#32A071"/>
<stop offset="0.0685" stop-color="#2DA771"/>
<stop offset="0.4762" stop-color="#15CF74"/>
<stop offset="0.8009" stop-color="#06E775"/>
<stop offset="1" stop-color="#00F076"/>
</linearGradient>
</defs>
</svg>
